<?xml version="1.0" encoding="UTF-8"?>
<svg version="1.1" viewBox="0 0 1452 1664" width="1280" height="1280" xmlns="http://www.w3.org/2000/svg">
<path transform="translate(503,142)" d="m0 0 11 1 20 4 24 8 14 7 10 8 8 6 10 9 10 10 14 19 11 17 15 28 10 16 10 14 8 10 9 10 10 9 13 8 16 6 15 6 19 4 66 9 21 4 26 8 6 4 2 6v299l-2 25-4 7-4 5-10 15-12 19-9 16-8 13-10 16-13 20-9 14-14 21-7 8-11 3h-50l-10-3-3-4-3-11-8-9-7-11-10-16-16-25-8-12-12-17-9-16-12-19-9-12-2-10-1-31v-354l-1-37-2-9-8-11-4-5-13-9-9-3-10-1h-12l-24 2-25 5-15 6-10 6-21 11-7 4-5 4-12 3h-9l-4-4-1-5 4-6 11-14 8-9 11-9 6-5 10-6 18-11 20-9 3-1 11-1 6-7-1-6-5-5-6-7-4-5-8-6-1-1 1-8z" fill="#F9BE28"/>
<path transform="translate(534,266)" d="m0 0h20l11 1 1 1 1 13v411l3 12 12 20 12 18 11 18 15 24 24 38 11 18 16 25 12 19 7 10 2 1h106l5-5 12-20 13-21 11-18 11-17 13-21 16-26 11-17 13-21 13-22 3-4 1-4 1-431 2-2h30l7 1 1 2v437l-3 9-7 12-12 18-10 16-14 22-15 24-13 20-15 24-17 26-10 16-11 17-12 19-8 13-56 88-10 17-2 3-4-2-16-25-25-40-14-22-10-16-11-18-7-10-12-19-15-24-16-25-15-23-10-17-13-20-13-21-12-18-14-22-9-16-2-5-1-388 1-51z" fill="#4B4B4A"/>
<path transform="translate(737,337)" d="m0 0 23 5 66 9 21 4 26 8 6 4 2 6v299l-2 25-4 7-4 5-10 15-12 19-9 16-8 13-10 16-13 20-9 14-14 21-7 8-11 3h-34v-1h5v-57l-1-41v-134l1-62v-24l-1-42z" fill="#FEDB79"/>
<path transform="translate(835,357)" d="m0 0 9 1 5 2 14 1 7 1 9 5 2 6v299l-2 25-4 7-4 5-10 15-12 19-9 16-1 2h-5l-3-4-1-4v-269l1-56v-36l1-29 2-5z" fill="#F9BE29"/>
<path transform="translate(439,1128)" d="m0 0h7l5 5 5 25 2 9 3 25 6 22 3 16v10l-5 6-2 1h-8l-4-6-12-42-5-15v-2l-4 2-8 18-7 16-7 9-7 1-6-5-13-26-5-6-3-1-5 25-7 36-4 11-4 5-2 1h-7l-5-5v-12l7-34 4-24 3-21 5-16 4-8 6-5 2-1h9l5 3 3 5 6 16 7 17 4 2 2-6 7-16 12-25 2-3h2v-2z" fill="#4B4B4A"/>
<path transform="translate(729,1132)" d="m0 0h8l4 5 1 3v103l-3 7-5 5h-7l-7-3-7-8-13-20-10-14-13-15-6-4v59l-4 10-3 3h-8l-2-3-1-14-1-48-3-27v-16l4-8 5-3 6 1 8 7 9 10 7 11 13 14 11 18 5 8v2l4 1v-22l-1-32v-11l2-10 4-6z" fill="#4B4B4A"/>
<path transform="translate(552,1165)" d="m0 0h6l4 3 1 3v80l-4 15-6 11-11 11-12 5-8 2h-15l-3-5v-6l5-7h16l10-4 6-5 4-8 2-6v-12l-5 2-7 6-9 4-10-2-6-4-6-7-5-11-3-14-3-28 1-6 6-7 4-1 5 5 2 5 2 20 5 24 4 6 3 2 6-1 8-13 4-13 1-7 1-27 4-8z" fill="#4B4B4A"/>
<path transform="translate(802,1169)" d="m0 0h16l10 4 7 8 3 9v22l-4 14-6 12-9 10-8 6-7 2h-17l-6-3-8-9-3-8v-18l3-20 6-12 7-7 9-6zm4 19-8 3-4 5-3 8-2 20 1 10 3 6 4 2h6l8-6 7-10 3-8 1-19-3-7-4-3z" fill="#4B4B4A"/>
<path transform="translate(979,1174)" d="m0 0 10 1 8 5 3 7-1 10-4 10-7 9-9 6-7 2-9 1-1 3 2 7 5 4 9 2 10-5 12-9 5 1 3 4-1 7-6 8-10 6-9 3-5 1h-9l-10-3-6-4-6-7-2-10v-13l2-14 5-13 6-8 9-6zm-6 19-6 4-4 7v6l1 2h6l9-7 3-4-1-6-2-2z" fill="#4B4B4A"/>
<path transform="translate(887,1155)" d="m0 0 6 1 3 4v15l17-2 4 4 1 6-3 5-14 7-5 2-1 4v23l2 9 4 4 16-1 3 4v6l-5 5-6 4-7 2h-8l-8-4-6-8-3-7-2-12-1-23-1-2-11-3-2-9 5-5 8-4 1-1 2-16 3-5z" fill="#4B4B4A"/>
<path transform="translate(1065,1164)" d="m0 0h7l9 3 4 4 1 8-6 7-5 1-7-3h-7l-5 5v6l5 2 16 6 6 4 4 7 1 4v10l-4 11-6 9-7 6-12 4h-17l-7-3-5-6 1-9 5-4 5-1 7 4 4 3 6 1 6-3 5-6 1-3v-7l-5-5-11-4-8-3-5-4-3-6-1-9 2-9 4-8 8-7 10-4z" fill="#4B4B4A"/>
</svg>
